<svg xmlns="http://www.w3.org/2000/svg" width="1200" height="700" viewBox="0 0 1200 700"><rect width="100%" height="100%" fill="#F7F9FC"/><style>text{font-family:Inter,Segoe UI,Arial,sans-serif}</style><text x="65" y="68" font-size="30" font-weight="800" fill="#10263F" text-anchor="start">How concentrated are qualifying sales across departments?</text><text x="65" y="104" font-size="17" font-weight="400" fill="#64748B" text-anchor="start">A relatively small group of departments accounts for a large share of qualifying sales.</text><rect x="90" y="210.08700664298118" width="48" height="334.9129933570188" rx="6" fill="#0F766E"/><text x="114" y="569" font-size="11" font-weight="700" fill="#64748B" text-anchor="middle">92</text><rect x="159.42857142857144" y="248.83862944509713" width="48" height="296.1613705549029" rx="6" fill="#0F766E"/><text x="183.42857142857144" y="569" font-size="11" font-weight="700" fill="#64748B" text-anchor="middle">95</text><rect x="228.85714285714286" y="343.4247245974786" width="48" height="201.5752754025214" rx="6" fill="#0F766E"/><text x="252.85714285714286" y="569" font-size="11" font-weight="700" fill="#64748B" text-anchor="middle">90</text><rect x="298.2857142857143" y="359.70225672633745" width="48" height="185.29774327366255" rx="6" fill="#0F766E"/><text x="322.2857142857143" y="569" font-size="11" font-weight="700" fill="#64748B" text-anchor="middle">38</text><rect x="367.7142857142857" y="382.07211276737644" width="48" height="162.92788723262356" rx="6" fill="#0F766E"/><text x="391.7142857142857" y="569" font-size="11" font-weight="700" fill="#64748B" text-anchor="middle">91</text><rect x="437.14285714285717" y="385.9841379353243" width="48" height="159.01586206467567" rx="6" fill="#2563EB"/><text x="461.14285714285717" y="569" font-size="11" font-weight="700" fill="#64748B" text-anchor="middle">93</text><rect x="506.57142857142856" y="392.1060710848581" width="48" height="152.89392891514188" rx="6" fill="#2563EB"/><text x="530.5714285714286" y="569" font-size="11" font-weight="700" fill="#64748B" text-anchor="middle">40</text><rect x="576" y="395.49734486379515" width="48" height="149.50265513620485" rx="6" fill="#2563EB"/><text x="600" y="569" font-size="11" font-weight="700" fill="#64748B" text-anchor="middle">94</text><rect x="645.4285714285714" y="409.8132198856114" width="48" height="135.18678011438865" rx="6" fill="#2563EB"/><text x="669.4285714285714" y="569" font-size="11" font-weight="700" fill="#64748B" text-anchor="middle">72</text><rect x="714.8571428571429" y="419.607462133765" width="48" height="125.39253786623502" rx="6" fill="#2563EB"/><text x="738.8571428571429" y="569" font-size="11" font-weight="700" fill="#64748B" text-anchor="middle">2</text><rect x="784.2857142857143" y="439.8719184377923" width="48" height="105.1280815622077" rx="6" fill="#2563EB"/><text x="808.2857142857143" y="569" font-size="11" font-weight="700" fill="#64748B" text-anchor="middle">8</text><rect x="853.7142857142858" y="451.06913348901344" width="48" height="93.93086651098658" rx="6" fill="#2563EB"/><text x="877.7142857142858" y="569" font-size="11" font-weight="700" fill="#64748B" text-anchor="middle">13</text><rect x="923.1428571428571" y="452.353715562057" width="48" height="92.64628443794298" rx="6" fill="#2563EB"/><text x="947.1428571428571" y="569" font-size="11" font-weight="700" fill="#64748B" text-anchor="middle">4</text><rect x="992.5714285714286" y="459.98345579114323" width="48" height="85.0165442088568" rx="6" fill="#2563EB"/><text x="1016.5714285714286" y="569" font-size="11" font-weight="700" fill="#64748B" text-anchor="middle">97</text><rect x="1062" y="465.35770194933207" width="48" height="79.64229805066795" rx="6" fill="#2563EB"/><text x="1086" y="569" font-size="11" font-weight="700" fill="#64748B" text-anchor="middle">87</text><polyline points="114,511.50870066429815 183.42857142857144,481.8925636088078 252.85714285714286,461.7350360685557 322.2857142857143,443.2052617411895 391.7142857142857,426.9124730179271 461.14285714285717,411.0108868114595 530.5714285714286,395.7214939199453 600,380.7712284063249 669.4285714285714,367.252550394886 738.8571428571429,354.7132966082625 808.2857142857143,344.2004884520417 877.7142857142858,334.807401800943 947.1428571428571,325.5427733571488 1016.5714285714286,317.04111893626305 1086,309.07688913119637" fill="none" stroke="#D97706" stroke-width="4"/><circle cx="114" cy="511.50870066429815" r="4" fill="#D97706"/><circle cx="183.42857142857144" cy="481.8925636088078" r="4" fill="#D97706"/><circle cx="252.85714285714286" cy="461.7350360685557" r="4" fill="#D97706"/><circle cx="322.2857142857143" cy="443.2052617411895" r="4" fill="#D97706"/><circle cx="391.7142857142857" cy="426.9124730179271" r="4" fill="#D97706"/><circle cx="461.14285714285717" cy="411.0108868114595" r="4" fill="#D97706"/><circle cx="530.5714285714286" cy="395.7214939199453" r="4" fill="#D97706"/><circle cx="600" cy="380.7712284063249" r="4" fill="#D97706"/><circle cx="669.4285714285714" cy="367.252550394886" r="4" fill="#D97706"/><circle cx="738.8571428571429" cy="354.7132966082625" r="4" fill="#D97706"/><circle cx="808.2857142857143" cy="344.2004884520417" r="4" fill="#D97706"/><circle cx="877.7142857142858" cy="334.807401800943" r="4" fill="#D97706"/><circle cx="947.1428571428571" cy="325.5427733571488" r="4" fill="#D97706"/><circle cx="1016.5714285714286" cy="317.04111893626305" r="4" fill="#D97706"/><circle cx="1086" cy="309.07688913119637" r="4" fill="#D97706"/><text x="90" y="586" font-size="13" font-weight="600" fill="#64748B" text-anchor="start">Department ID</text><text x="1110" y="160" font-size="13" font-weight="700" fill="#D97706" text-anchor="end">Cumulative share</text><text x="65" y="654" font-size="16" font-weight="700" fill="#10263F" text-anchor="start">Answer: the top 5 departments contribute 32.8% of qualifying sales; the top 10 contribute 52.9%.</text></svg>